<svg id="Filled" height="512" viewBox="0 0 512 512" width="512" xmlns="http://www.w3.org/2000/svg"><path d="m24 96h464v320h-464z" fill="#e9eef2"/><path d="m24 192h464v176h-464z" fill="#7e8589"/><path d="m56 288h48v48h-48z" fill="#414649"/><path d="m56 256h160v32h-160z" fill="#596063"/><path d="m168 288h48v48h-48z" fill="#414649"/><path d="m248 288h48v48h-48z" fill="#414649"/><path d="m248 256h48v32h-48z" fill="#596063"/><path d="m328 288h48v48h-48z" fill="#414649"/><path d="m328 256h48v32h-48z" fill="#596063"/><path d="m408 288h48v48h-48z" fill="#414649"/><path d="m408 256h48v32h-48z" fill="#596063"/><path d="m56 128h80v32h-80z" fill="#7e8589"/><path d="m488 88h-464a8 8 0 0 0 -8 8v320a8 8 0 0 0 8 8h464a8 8 0 0 0 8-8v-320a8 8 0 0 0 -8-8zm-8 16v80h-448v-80zm-304 192h32v32h-32zm32-16h-32v-16h32zm-48 0h-48v-16h48zm-96 16h32v32h-32zm0-16v-16h32v16zm-8-32a8 8 0 0 0 -8 8v80a8 8 0 0 0 8 8h48a8 8 0 0 0 8-8v-40h16v64h-96v-160h96v48zm88 48h16v40a8 8 0 0 0 8 8h48a8 8 0 0 0 8-8v-80a8 8 0 0 0 -8-8h-72v-48h336v160h-336zm-112 112v-32h448v32z"/><path d="m296 248h-48a8 8 0 0 0 -8 8v80a8 8 0 0 0 8 8h48a8 8 0 0 0 8-8v-80a8 8 0 0 0 -8-8zm-40 16h32v16h-32zm0 64v-32h32v32z"/><path d="m376 248h-48a8 8 0 0 0 -8 8v80a8 8 0 0 0 8 8h48a8 8 0 0 0 8-8v-80a8 8 0 0 0 -8-8zm-40 16h32v16h-32zm0 64v-32h32v32z"/><path d="m456 248h-48a8 8 0 0 0 -8 8v80a8 8 0 0 0 8 8h48a8 8 0 0 0 8-8v-80a8 8 0 0 0 -8-8zm-40 16h32v16h-32zm0 64v-32h32v32z"/><path d="m104 216h-48a8 8 0 0 0 0 16h48a8 8 0 0 0 0-16z"/><path d="m216 216h-48a8 8 0 0 0 0 16h48a8 8 0 0 0 0-16z"/><path d="m296 216h-48a8 8 0 0 0 0 16h48a8 8 0 0 0 0-16z"/><path d="m376 216h-48a8 8 0 0 0 0 16h48a8 8 0 0 0 0-16z"/><path d="m408 232h48a8 8 0 0 0 0-16h-48a8 8 0 0 0 0 16z"/><path d="m56 168h80a8 8 0 0 0 8-8v-32a8 8 0 0 0 -8-8h-80a8 8 0 0 0 -8 8v32a8 8 0 0 0 8 8zm8-32h64v16h-64z"/></svg>