<svg height="512" viewBox="0 0 64 64" width="512" xmlns="http://www.w3.org/2000/svg"><g id="Filled_outline" data-name="Filled outline"><path d="m11 3h42v58h-42z" fill="#cfdfe8"/><path d="m11 7h6v10h-6z" fill="#7d8d9c"/><path d="m11 47h6v10h-6z" fill="#7d8d9c"/><path d="m27 8h10v4h-10z" fill="#e97424"/><path d="m22 16h20v4h-20z" fill="#394d5c"/><path d="m18 24h4v6h-4z" fill="#55b56a"/><path d="m26 24h4v6h-4z" fill="#dd3e46"/><path d="m34 24h4v6h-4z" fill="#55b56a"/><path d="m42 24h4v6h-4z" fill="#dd3e46"/><path d="m22 34h20v22h-20z" fill="#7d8d9c"/><path d="m31 38h5l-3 5h5l-7 9v-5h-5z" fill="#fcf05a"/><g fill="#f4f4e6"><path d="m14 20h2v2h-2z"/><path d="m14 42h2v2h-2z"/><path d="m14 38h2v2h-2z"/></g><path d="m29 16h6v4h-6z" fill="#7d8d9c"/><path d="m53 62a1 1 0 0 0 1-1v-58a1 1 0 0 0 -1-1h-42a1 1 0 0 0 -1 1v58a1 1 0 0 0 1 1zm-41-54h4v8h-4zm0 40h4v8h-4zm0 10h5a1 1 0 0 0 1-1v-10a1 1 0 0 0 -1-1h-5v-28h5a1 1 0 0 0 1-1v-10a1 1 0 0 0 -1-1h-5v-2h40v56h-40z"/><path d="m27 13h10a1 1 0 0 0 1-1v-4a1 1 0 0 0 -1-1h-10a1 1 0 0 0 -1 1v4a1 1 0 0 0 1 1zm1-4h8v2h-8z"/><path d="m22 21h20a1 1 0 0 0 1-1v-4a1 1 0 0 0 -1-1h-20a1 1 0 0 0 -1 1v4a1 1 0 0 0 1 1zm14-4h5v2h-5zm-6 0h4v2h-4zm-7 0h5v2h-5z"/><path d="m23 30v-6a1 1 0 0 0 -1-1h-4a1 1 0 0 0 -1 1v6a1 1 0 0 0 1 1h4a1 1 0 0 0 1-1zm-2-1h-2v-4h2z"/><path d="m26 23a1 1 0 0 0 -1 1v6a1 1 0 0 0 1 1h4a1 1 0 0 0 1-1v-6a1 1 0 0 0 -1-1zm3 6h-2v-4h2z"/><path d="m34 23a1 1 0 0 0 -1 1v6a1 1 0 0 0 1 1h4a1 1 0 0 0 1-1v-6a1 1 0 0 0 -1-1zm3 6h-2v-4h2z"/><path d="m46 23h-4a1 1 0 0 0 -1 1v6a1 1 0 0 0 1 1h4a1 1 0 0 0 1-1v-6a1 1 0 0 0 -1-1zm-1 6h-2v-4h2z"/><path d="m42 33h-20a1 1 0 0 0 -1 1v22a1 1 0 0 0 1 1h20a1 1 0 0 0 1-1v-22a1 1 0 0 0 -1-1zm-1 22h-18v-20h18z"/><path d="m26 48h4v4a1 1 0 0 0 .675.946 1.021 1.021 0 0 0 .325.054 1 1 0 0 0 .79-.386l7-9a1 1 0 0 0 -.79-1.614h-3.234l2.091-3.485a1 1 0 0 0 -.857-1.515h-5a1 1 0 0 0 -.874.514l-5 9a1 1 0 0 0 .874 1.486zm5.588-9h2.646l-2.091 3.485a1 1 0 0 0 .857 1.515h2.956l-3.956 5.085v-2.085a1 1 0 0 0 -1-1h-3.3z"/><path d="m14 20h2v2h-2z"/><path d="m14 42h2v2h-2z"/><path d="m14 38h2v2h-2z"/><path d="m49 6h-4v2h3v6h2v-7a1 1 0 0 0 -1-1z"/><path d="m48 16h2v2h-2z"/></g></svg>