<svg height="512" viewBox="0 0 512 512" width="512" xmlns="http://www.w3.org/2000/svg"><g id="flat"><path d="m48 296h416v192h-416z" fill="#fbb540"/><path d="m48 360h416v64h-416z" fill="#ea9d2d"/><path d="m112 216h40v80h-40z" fill="#683b0d"/><path d="m96 54 2.213 1.475a55.3 55.3 0 0 1 21.787 28.525 55.3 55.3 0 0 1 21.787-28.525l2.213-1.475-2.213-1.475a55.3 55.3 0 0 1 -21.787-28.525 55.3 55.3 0 0 1 -21.787 28.525z" fill="#fbb540"/><path d="m48 106 2.213 1.475a55.3 55.3 0 0 1 21.787 28.525 55.3 55.3 0 0 1 21.787-28.525l2.213-1.475-2.213-1.475a55.3 55.3 0 0 1 -21.787-28.525 55.3 55.3 0 0 1 -21.787 28.525z" fill="#fbb540"/><path d="m232.758 60.379-8.758-4.379v30.111a16 16 0 0 1 -23.155 14.311 16 16 0 0 1 -8.845-14.311v-30.111l-8.758 4.379a42.046 42.046 0 0 0 -23.242 37.606 42.048 42.048 0 0 0 8.409 25.227l15.591 20.788v152h48v-152l15.591-20.788a42.048 42.048 0 0 0 8.409-25.227 42.046 42.046 0 0 0 -23.242-37.606z" fill="#cbcbcb"/><path d="m104 168h48v48h-48z" fill="#0bafea"/><path d="m40 168h32v48h-32z" fill="#0bafea"/><path d="m104 176-32-8v48l32-8z" fill="#0a9acd"/><path d="m152 176h32l24 48h-14.111a28.944 28.944 0 0 1 -25.889-16h-16z" fill="#0a9acd"/><g fill="#c38325"><path d="m88 336h-8a8 8 0 0 1 0-16h8a8 8 0 0 1 0 16z"/><path d="m88 400h-8a8 8 0 0 1 0-16h8a8 8 0 0 1 0 16z"/><path d="m88 464h-8a8 8 0 0 1 0-16h8a8 8 0 0 1 0 16z"/></g><circle cx="376" cy="392" fill="#0a9acd" r="96"/><circle cx="376" cy="392" fill="#6ee7f5" r="80"/><path d="m328 376h96v64h-96z" fill="#eaeae8"/><path d="m376 336-48 40h96z" fill="#d32b39"/><path d="m360 408h32v32h-32z" fill="#d32b39"/><path d="m312 128a48 48 0 0 0 -24 89.562v78.438h48v-78.438a48 48 0 0 0 -24-89.562zm8.944 63.492h-17.888l-8.945-15.492 8.945-15.492h17.888l8.945 15.492z" fill="#d32b39"/><path d="m392 56-8 32 8 24v104h32v-104l8-24-8-32z" fill="#cbcbcb"/><path d="m432 88h-48l8-32h32z" fill="#eaeae8"/><rect fill="#02a437" height="32" rx="16" width="80" x="368" y="216"/><path d="m384 248h48v48h-48z" fill="#02a437"/><path d="m384 248h48v16h-48z" fill="#027e2a"/><path d="m112 216h40v16h-40z" fill="#533222"/></g></svg>