<svg id="Capa_1" enable-background="new 0 0 512 512" height="512" viewBox="0 0 512 512" width="512" xmlns="http://www.w3.org/2000/svg"><g><g><path d="m31 101.213v73.787c0 8.284 6.716 15 15 15h73.787l21.213-21.213v-37.574l-10-31.213 10-11.213v-73.787c0-8.284-6.716-15-15-15h-73.787l-21.213 21.213v37.574l10 25.213z" fill="#fff5f5"/><g fill="#e1ebf0"><path d="m126 0h-40v190h33.787l21.213-21.213v-37.574l-10-31.213 10-11.213v-73.787c0-8.284-6.716-15-15-15z"/><path d="m141 88.787-88.787-88.787h-6.213c-8.284 0-15 6.716-15 15v6.213l110 110z"/><path d="m141 175v-6.213l-110-110v42.426l88.787 88.787h6.213c8.284 0 15-6.716 15-15z"/></g><path d="m86 76.213 55 55v-42.426l-55-55z" fill="#c8d2dc"/><path d="m86 156.213 33.787 33.787h6.213c8.284 0 15-6.716 15-15v-6.213l-55-55z" fill="#c8d2dc"/><path d="m156 512h-140c-8.284 0-15-6.716-15-15v-322c0-8.284 6.716-15 15-15h140c8.284 0 15 6.716 15 15v322c0 8.284-6.716 15-15 15z" fill="#0a617d"/><path d="m156 160h-70v352h70c8.284 0 15-6.716 15-15v-322c0-8.284-6.716-15-15-15z" fill="#08475e"/></g><g><path d="m456 190c-8.284 0-15-6.716-15-15v-160c0-8.284 6.716-15 15-15s15 6.716 15 15v160c0 8.284-6.716 15-15 15z" fill="#ffe477"/><path d="m471 175v-160c0-8.284-6.716-15-15-15v190c8.284 0 15-6.716 15-15z" fill="#ffb655"/><path d="m496 512h-80c-8.284 0-15-6.716-15-15v-322c0-8.284 6.716-15 15-15h80c8.284 0 15 6.716 15 15v322c0 8.284-6.716 15-15 15z" fill="#0a617d"/><path d="m496 160h-40v352h40c8.284 0 15-6.716 15-15v-322c0-8.284-6.716-15-15-15z" fill="#08475e"/></g><g><path d="m286 190c-8.284 0-15-6.716-15-15v-15.147c0-29.018 5.63-57.325 16.735-84.134 11.104-26.81 27.139-50.807 47.658-71.325 5.858-5.858 15.355-5.858 21.213 0 5.858 5.857 5.858 15.355 0 21.213-35.858 35.858-55.606 83.534-55.606 134.246v15.147c0 8.284-6.716 15-15 15z" fill="#ffb655"/><path d="m286 190c-8.284 0-15-6.716-15-15v-15.147c0-50.712-19.748-98.388-55.606-134.246-5.858-5.857-5.858-15.355 0-21.213 5.857-5.857 15.355-5.857 21.213 0 20.519 20.519 36.554 44.516 47.658 71.325 11.105 26.809 16.735 55.116 16.735 84.134v15.147c0 8.284-6.716 15-15 15z" fill="#ff5e90"/><path d="m286 190c8.284 0 15-6.716 15-15v-15.147c0-27.458-5.049-54.278-15-79.796z" fill="#ea1c81"/><path d="m326 512h-80c-8.284 0-15-6.716-15-15v-322c0-8.284 6.716-15 15-15h80c8.284 0 15 6.716 15 15v322c0 8.284-6.716 15-15 15z" fill="#0a617d"/><path d="m326 160h-40v352h40c8.284 0 15-6.716 15-15v-322c0-8.284-6.716-15-15-15z" fill="#08475e"/></g></g></svg>