<svg height="496pt" viewBox="0 0 496 496" width="496pt" xmlns="http://www.w3.org/2000/svg"><g fill="#969faa"><path d="m488 184v16c0 8.800781-7.199219 16-16 16h-96c-8.800781 0-16-7.199219-16-16v-16zm0 0"/><path d="m312 8v16c0 8.800781-7.199219 16-16 16h-96c-8.800781 0-16-7.199219-16-16v-16zm0 0"/><path d="m136 88v16c0 8.800781-7.199219 16-16 16h-96c-8.800781 0-16-7.199219-16-16v-16zm0 0"/></g><path d="m440 280v48h-32v-48zm0 0" fill="#e6e9ed"/><path d="m264 104v48h-32v-48zm0 0" fill="#e6e9ed"/><path d="m88 184v48h-32v-48zm0 0" fill="#e6e9ed"/><path d="m454.238281 349.359375c11.601563 17.359375 17.761719 37.761719 17.761719 58.640625s-6.160156 41.28125-17.761719 58.640625l-14.238281 21.359375h-32l-14.238281-21.359375c-11.601563-17.359375-17.761719-37.761719-17.761719-58.640625s6.160156-41.28125 17.761719-58.640625l14.238281-21.359375h32zm0 0" fill="#fcd770"/><path d="m270.558594 280h-62.558594l-16-32 40-96h32l40 96-16 32zm0 0" fill="#fcd770"/><path d="m88 232v9.519531c0 39.601563 17.601562 77.121094 48 102.480469v16h-128v-16c15.199219-12.640625 27.199219-28.398438 35.359375-45.921875 8.242187-17.4375 12.640625-36.796875 12.640625-56.558594v-9.519531zm0 0" fill="#fcd770"/><path d="m270.558594 280c.960937 2.480469 1.441406 5.199219 1.441406 8 0 13.28125-10.71875 24-24 24s-24-10.71875-24-24c0-2.800781.480469-5.519531 1.359375-8zm0 0" fill="#ffc729"/><path d="m40 360h64c0 17.679688-14.320312 32-32 32s-32-14.320312-32-32zm0 0" fill="#ffc729"/><path d="m176 24c0 13.230469 10.769531 24 24 24h40v48h-16v54.398438l-40.792969 97.90625 19.847657 39.695312h12.945312c0 17.648438 14.351562 32 32 32s32-14.351562 32-32h12.945312l19.839844-39.695312-40.785156-97.90625v-54.398438h-16v-48h40c13.230469 0 24-10.769531 24-24v-24h-144zm64 88h16v32h-16zm8 192c-8.824219 0-16-7.175781-16-16h32c0 8.824219-7.175781 16-16 16zm35.054688-32h-70.109376l-12.160156-24.304688 36.550782-87.695312h21.335937l36.542969 87.695312zm-91.054688-256h112v8c0 4.414062-3.585938 8-8 8h-96c-4.414062 0-8-3.585938-8-8zm0 0"/><path d="m352 176v24c0 13.230469 10.769531 24 24 24h40v48h-16v53.574219l-12.902344 19.363281c-12.496094 18.742188-19.097656 40.550781-19.097656 63.0625s6.601562 44.320312 19.097656 63.0625l16.621094 24.9375h40.5625l16.621094-24.9375c12.496094-18.742188 19.097656-40.550781 19.097656-63.0625s-6.601562-44.320312-19.097656-63.0625l-12.902344-19.363281v-53.574219h-16v-48h40c13.230469 0 24-10.769531 24-24v-24zm64 112h16v32h-16zm48 120c0 19.34375-5.671875 38.089844-16.40625 54.183594l-11.875 17.816406h-23.4375l-11.875-17.816406c-10.734375-16.09375-16.40625-34.839844-16.40625-54.183594s5.671875-38.089844 16.40625-54.183594l11.875-17.816406h23.4375l11.875 17.816406c10.734375 16.09375 16.40625 34.839844 16.40625 54.183594zm16-208c0 4.414062-3.585938 8-8 8h-96c-4.414062 0-8-3.585938-8-8v-8h112zm0 0"/><path d="m0 104c0 13.230469 10.769531 24 24 24h40v48h-16v65.511719c0 37.328125-16.449219 72.449219-45.128906 96.335937l-2.871094 2.398438v27.753906h32.808594c3.71875 18.230469 19.871094 32 39.191406 32s35.472656-13.769531 39.191406-32h32.808594v-27.753906l-2.871094-2.398438c-28.679687-23.886718-45.128906-59.007812-45.128906-96.335937v-65.511719h-16v-48h40c13.230469 0 24-10.769531 24-24v-24h-144zm64 88h16v32h-16zm8 192c-10.414062 0-19.214844-6.710938-22.527344-16h45.046875c-3.304687 9.289062-12.105469 16-22.519531 16zm56-36.320312v4.320312h-112v-4.320312c30.550781-26.855469 48-65.335938 48-106.167969v-1.511719h16v1.511719c0 40.832031 17.449219 79.3125 48 106.167969zm-112-251.679688h112v8c0 4.414062-3.585938 8-8 8h-96c-4.414062 0-8-3.585938-8-8zm0 0"/></svg>