<svg id="Capa_1" enable-background="new 0 0 512 512" height="512" viewBox="0 0 512 512" width="512" xmlns="http://www.w3.org/2000/svg"><g><g><path d="m411.565 504.5h-311.13c-16.737 0-30.305-13.568-30.305-30.305v-436.39c0-16.737 13.568-30.305 30.305-30.305h311.13c16.737 0 30.305 13.568 30.305 30.305v436.39c0 16.737-13.568 30.305-30.305 30.305z" fill="#d3effd"/></g><g><path d="m411.565 7.5h-28.285c16.737 0 30.305 13.568 30.305 30.305v436.39c0 16.737-13.568 30.305-30.305 30.305h28.285c16.737 0 30.305-13.568 30.305-30.305v-436.39c0-16.737-13.568-30.305-30.305-30.305z" fill="#b2e5fb"/></g><g><g><path d="m346.915 128.72h-181.83v-48.488c0-5.579 4.523-10.102 10.102-10.102h161.626c5.579 0 10.102 4.523 10.102 10.102z" fill="#c4237c"/></g><g><path d="m336.813 441.87h-161.626c-5.579 0-10.102-4.523-10.102-10.102v-303.048c0-5.579 4.523-10.102 10.102-10.102h161.626c5.579 0 10.102 4.523 10.102 10.102v303.049c0 5.578-4.523 10.101-10.102 10.101z" fill="#e279b3"/></g><g><path d="m336.813 118.618h-27.274c5.579 0 10.102 4.523 10.102 10.102v303.049c0 5.579-4.523 10.102-10.102 10.102h27.274c5.579 0 10.102-4.523 10.102-10.102v-303.049c0-5.579-4.523-10.102-10.102-10.102z" fill="#de5ca3"/></g></g><g><g><circle cx="393.382" cy="55.988" fill="#62a4fb" r="16.163"/></g></g><g><g><circle cx="118.618" cy="55.988" fill="#62a4fb" r="16.163"/></g></g><g><g><circle cx="393.382" cy="456.012" fill="#62a4fb" r="16.163"/></g></g><g><g><circle cx="118.618" cy="456.012" fill="#62a4fb" r="16.163"/></g></g><g><path d="m411.57 0h-311.14c-20.843 0-37.8 16.957-37.8 37.8v346.4c0 4.142 3.358 7.5 7.5 7.5s7.5-3.358 7.5-7.5v-346.4c0-12.572 10.228-22.8 22.8-22.8h311.14c12.572 0 22.8 10.228 22.8 22.8v44.12c0 4.142 3.357 7.5 7.5 7.5s7.5-3.358 7.5-7.5v-44.12c0-20.843-16.957-37.8-37.8-37.8z"/><path d="m441.87 109.42c-4.143 0-7.5 3.358-7.5 7.5v357.28c0 12.572-10.228 22.8-22.8 22.8h-311.14c-12.572 0-22.8-10.228-22.8-22.8v-55c0-4.142-3.358-7.5-7.5-7.5s-7.5 3.358-7.5 7.5v55c0 20.843 16.957 37.8 37.8 37.8h311.14c20.843 0 37.8-16.957 37.8-37.8v-357.28c0-4.142-3.357-7.5-7.5-7.5z"/><path d="m157.59 431.77c0 9.705 7.896 17.6 17.6 17.6h161.62c9.705 0 17.601-7.896 17.601-17.6l.005-351.538c0-9.706-7.896-17.602-17.602-17.602h-161.627c-9.706 0-17.602 7.896-17.602 17.602zm179.22 2.6h-161.62c-1.434 0-2.6-1.167-2.6-2.6v-144.026h166.82v144.026c0 1.434-1.167 2.6-2.6 2.6zm-161.623-356.74h161.626c1.435 0 2.602 1.167 2.602 2.602v31.103c-.853-.127-1.718-.215-2.605-.215h-113.14c-4.142 0-7.5 3.358-7.5 7.5s3.358 7.5 7.5 7.5h113.14c1.434 0 2.601 1.167 2.601 2.6v144.024h-166.821v-144.024c0-1.434 1.167-2.6 2.6-2.6h13.48c4.142 0 7.5-3.358 7.5-7.5s-3.358-7.5-7.5-7.5h-13.48c-.887 0-1.752.087-2.604.215v-31.103c-.001-1.435 1.166-2.602 2.601-2.602z"/><path d="m256 239.256c21.96 0 39.825-17.866 39.825-39.825s-17.865-39.826-39.825-39.826c-21.959 0-39.825 17.866-39.825 39.825s17.866 39.826 39.825 39.826zm0-64.651c13.688 0 24.825 11.137 24.825 24.825s-11.137 24.826-24.825 24.826-24.825-11.137-24.825-24.825 11.137-24.826 24.825-24.826z"/><path d="m256 321.232c-4.142 0-7.5 3.358-7.5 7.5v64.65c0 4.142 3.358 7.5 7.5 7.5 4.143 0 7.5-3.358 7.5-7.5v-64.65c0-4.142-3.357-7.5-7.5-7.5z"/><path d="m393.382 79.65c13.048 0 23.663-10.615 23.663-23.663s-10.615-23.663-23.663-23.663c-13.047 0-23.662 10.615-23.662 23.663s10.615 23.663 23.662 23.663zm0-32.325c4.776 0 8.663 3.886 8.663 8.663s-3.887 8.663-8.663 8.663-8.662-3.886-8.662-8.663 3.885-8.663 8.662-8.663z"/><path d="m118.618 79.65c13.047 0 23.663-10.615 23.663-23.663s-10.615-23.663-23.663-23.663-23.663 10.616-23.663 23.664 10.615 23.662 23.663 23.662zm0-32.325c4.776 0 8.663 3.886 8.663 8.663s-3.886 8.663-8.663 8.663-8.663-3.886-8.663-8.663 3.886-8.663 8.663-8.663z"/><path d="m393.382 479.675c13.048 0 23.663-10.615 23.663-23.663s-10.615-23.663-23.663-23.663c-13.047 0-23.662 10.615-23.662 23.663s10.615 23.663 23.662 23.663zm0-32.325c4.776 0 8.663 3.886 8.663 8.663s-3.887 8.663-8.663 8.663-8.662-3.886-8.662-8.663 3.885-8.663 8.662-8.663z"/><path d="m118.618 479.675c13.047 0 23.663-10.615 23.663-23.663s-10.615-23.663-23.663-23.663-23.663 10.615-23.663 23.663 10.615 23.663 23.663 23.663zm0-32.325c4.776 0 8.663 3.886 8.663 8.663s-3.886 8.663-8.663 8.663-8.663-3.886-8.663-8.663 3.886-8.663 8.663-8.663z"/></g></g></svg>