<svg height="512" viewBox="0 0 128 128" width="512" xmlns="http://www.w3.org/2000/svg"><g><g><path d="m52-9.516h24v102.5h-24z" fill="#d7d7db" transform="matrix(0 1 -1 0 105.734 -22.266)"/><path d="m9.75 19.846h6v92.808h-6z" fill="#efeffb"/><g><rect fill="#f7502f" height="52.776" rx="6" width="12" x="22" y="15.346"/><rect fill="#d8351e" height="52.776" rx="6" width="12" x="34" y="15.346"/><rect fill="#f7502f" height="52.776" rx="6" width="12" x="46" y="15.346"/><rect fill="#d8351e" height="52.776" rx="6" width="12" x="58" y="15.346"/><rect fill="#f7502f" height="52.776" rx="6" width="12" x="70" y="15.346"/><rect fill="#f7502f" height="52.776" rx="6" width="12" x="94" y="15.346"/><g fill="#d8351e"><path d="m88 15.346a6 6 0 0 1 6 6v57.6a0 0 0 0 1 0 0h-12a0 0 0 0 1 0 0v-57.6a6 6 0 0 1 6-6z"/><path d="m82 76.513v3.193l2.588 11.615h6.824l2.588-11.615v-3.193z"/></g></g><path d="m112.25 19.846h6v92.808h-6z" fill="#efeffb" transform="matrix(-1 0 0 -1 230.5 132.5)"/></g><g fill="#220401"><path d="m15.75 86.875a1.75 1.75 0 0 0 -1.75 1.75v3.875a1.75 1.75 0 0 0 3.5 0v-3.875a1.75 1.75 0 0 0 -1.75-1.75z"/><path d="m121.5 110.9h-1.5v-91.054a1.75 1.75 0 0 0 -1.75-1.75h-6a1.75 1.75 0 0 0 -1.75 1.75v8.134h-2.75v-6.634a7.745 7.745 0 0 0 -13.75-4.897 7.736 7.736 0 0 0 -12 0 7.736 7.736 0 0 0 -12 0 7.736 7.736 0 0 0 -12 0 7.736 7.736 0 0 0 -12 0 7.736 7.736 0 0 0 -12 0 7.745 7.745 0 0 0 -13.75 4.9v6.631h-2.75v-8.134a1.75 1.75 0 0 0 -1.75-1.75h-6a1.75 1.75 0 0 0 -1.75 1.75v91.054h-1.5a1.75 1.75 0 0 0 0 3.5h12.5a1.75 1.75 0 0 0 0-3.5h-1.5v-12.087a1.75 1.75 0 0 0 -3.5 0v12.087h-2.5v-89.3h2.5v61.108a1.75 1.75 0 0 0 3.5 0v-27.228h2.75v6.642a7.745 7.745 0 0 0 13.75 4.897 7.736 7.736 0 0 0 12 0 7.736 7.736 0 0 0 12 0 7.736 7.736 0 0 0 12 0 7.726 7.726 0 0 0 10.25 1.581v6.168h-.75a1.75 1.75 0 0 0 0 3.5h.75v1.444a1.742 1.742 0 0 0 .042.38l2.588 11.608a1.75 1.75 0 0 0 1.708 1.37h6.824a1.75 1.75 0 0 0 1.708-1.37l.4-1.789a1.75 1.75 0 0 0 -3.416-.761l-.094.42h-4.019l-2.241-10.056v-1.251h8.5v1.251l-.518 2.323a1.75 1.75 0 1 0 3.416.761l.56-2.511a1.742 1.742 0 0 0 .042-.38v-1.444h.75a1.75 1.75 0 0 0 0-3.5h-.75v-6.163a7.741 7.741 0 0 0 12-6.473v-6.647h2.75v55.42h-1.5a1.75 1.75 0 0 0 0 3.5h12.5a1.75 1.75 0 0 0 0-3.5zm-104-58.92v-20.5h2.75v20.5zm10.5 14.392a4.255 4.255 0 0 1 -4.25-4.25v-40.776a4.25 4.25 0 0 1 8.5 0v40.776a4.255 4.255 0 0 1 -4.25 4.25zm12 0a4.255 4.255 0 0 1 -4.25-4.25v-40.776a4.25 4.25 0 0 1 8.5 0v40.776a4.255 4.255 0 0 1 -4.25 4.25zm12 0a4.255 4.255 0 0 1 -4.25-4.25v-40.776a4.25 4.25 0 0 1 8.5 0v40.776a4.255 4.255 0 0 1 -4.25 4.25zm24 0a4.255 4.255 0 0 1 -4.25-4.25v-16.492a1.75 1.75 0 1 0 -3.5 0v16.492a4.25 4.25 0 0 1 -8.5 0v-40.776a4.25 4.25 0 0 1 8.5 0v15.154a1.75 1.75 0 0 0 3.5 0v-15.154a4.25 4.25 0 0 1 8.5 0v40.776a4.255 4.255 0 0 1 -4.25 4.25zm7.75 8.391v-53.417a4.25 4.25 0 0 1 8.5 0v53.417zm20.5-12.641a4.25 4.25 0 1 1 -8.5 0v-40.776a4.25 4.25 0 0 1 8.5 0zm3.5-10.142v-20.5h2.75v20.5zm6.25 58.92v-89.3h2.5v89.3z"/></g></g></svg>