<?xml version="1.0" encoding="iso-8859-1"?>
<!-- Generator: Adobe Illustrator 19.0.0, SVG Export Plug-In . SVG Version: 6.00 Build 0)  -->
<svg version="1.1" id="Capa_1" xmlns="http://www.w3.org/2000/svg" xmlns:xlink="http://www.w3.org/1999/xlink" x="0px" y="0px"
	 viewBox="0 0 512.006 512.006" style="enable-background:new 0 0 512.006 512.006;" xml:space="preserve">
<path style="fill:#E7ECED;" d="M196.894,225.409c1.703,1.859,3.398,3.752,5.075,5.68c14.213,16.374,26.663,56.602,26.663,73.426
	h51.873c0-28.979,36.959-85.036,56.195-103.745L196.894,225.409z"/>
<g>
	<path style="fill:#AFB6BB;" d="M150.814,295.87c0,43.227,34.582,51.873,34.582,86.454c0,9.545,7.746,17.291,17.291,17.291h103.745
		c9.545,0,17.291-7.746,17.291-17.291c0-34.582,34.582-43.227,34.582-86.454H150.814z"/>
	<path style="fill:#AFB6BB;" d="M354.154,210.582l-187.312,33.017c-14.109,2.49-27.562-6.934-30.043-21.043l0,0
		c-2.49-14.109,6.934-27.562,21.043-30.043l187.312-33.017c14.109-2.49,27.562,6.934,30.043,21.043l0,0
		C377.679,194.649,368.264,208.093,354.154,210.582z"/>
</g>
<path style="fill:#E7ECED;" d="M354.154,157.923L166.842,190.94c-14.109,2.49-27.562-6.934-30.043-21.043l0,0
	c-2.49-14.109,6.934-27.562,21.043-30.043l187.312-33.017c14.109-2.49,27.562,6.934,30.043,21.043l0,0
	C377.679,141.99,368.264,155.442,354.154,157.923z"/>
<path style="fill:#AFB6BB;" d="M354.172,105.264L166.86,138.272c-14.109,2.49-27.562-6.934-30.043-21.043l0,0
	c-2.49-14.109,6.934-27.562,21.043-30.043l187.312-33.017c14.109-2.49,27.562,6.934,30.043,21.043l0,0
	C377.696,89.322,368.272,102.774,354.172,105.264z"/>
<path style="fill:#E7ECED;" d="M311.29,60.126L209.119,78.134c-14.109,2.49-27.562-6.934-30.043-21.034l0,0
	c-2.49-14.109,6.934-27.562,21.034-30.052L302.282,9.04c14.109-2.49,27.562,6.934,30.043,21.043l0,0
	C334.815,44.192,325.391,57.645,311.29,60.126z"/>
<path style="fill:#AFB6BB;" d="M306.449,468.778H202.704c-9.553,0-17.291-7.738-17.291-17.291l0,0
	c0-9.553,7.738-17.291,17.291-17.291h103.745c9.553,0,17.291,7.738,17.291,17.291l0,0
	C323.74,461.032,315.993,468.778,306.449,468.778z"/>
<g>
	<path style="fill:#E7ECED;" d="M306.449,434.197H202.704c-9.553,0-17.291-7.738-17.291-17.291l0,0
		c0-9.553,7.738-17.291,17.291-17.291h103.745c9.553,0,17.291,7.738,17.291,17.291l0,0
		C323.74,426.45,315.993,434.197,306.449,434.197z"/>
	<path style="fill:#E7ECED;" d="M295.374,503.36h-81.613c-6.112,0-11.066-4.954-11.066-11.066v-23.516H306.44v23.516
		C306.449,498.406,301.486,503.36,295.374,503.36z"/>
</g>
<g>
	<path style="fill:#4D007E;" d="M306.432,408.26H202.686c-14.3,0-25.936-11.637-25.936-25.936c0-13.504-6.259-22.063-14.187-32.905
		c-9.553-13.081-20.395-27.907-20.395-53.55c0-4.772,3.865-8.645,8.645-8.645h207.49c4.781,0,8.645,3.873,8.645,8.645
		c0,25.642-10.841,40.469-20.395,53.55c-7.928,10.841-14.187,19.4-14.187,32.905C332.368,396.624,320.731,408.26,306.432,408.26z
		 M160.012,304.515c1.997,14.853,9.086,24.536,16.513,34.703c8.602,11.775,17.507,23.957,17.507,43.106
		c0,4.764,3.873,8.645,8.645,8.645h103.745c4.772,0,8.645-3.882,8.645-8.645c0-19.15,8.905-31.331,17.507-43.106
		c7.426-10.158,14.516-19.841,16.513-34.703H160.012z"/>
	<path style="fill:#4D007E;" d="M280.495,304.515c-4.781,0-8.645-3.873-8.645-8.645c0-31.374,35.187-65.498,56.213-85.884
		l2.602-2.524c3.424-3.328,8.896-3.251,12.225,0.173c3.328,3.424,3.251,8.896-0.173,12.225l-2.62,2.542
		c-17.81,17.274-50.965,49.417-50.965,73.469C289.141,300.642,285.268,304.515,280.495,304.515z"/>
	<path style="fill:#4D007E;" d="M162.329,252.642c-16.452,0-31.089-11.827-34.046-28.582c-3.311-18.778,9.277-36.752,28.054-40.063
		l187.312-33.017c9.069-1.608,18.268,0.432,25.833,5.732c7.573,5.3,12.622,13.228,14.222,22.331
		c1.608,9.095-0.432,18.268-5.732,25.833s-13.228,12.614-22.323,14.222l-187.303,33.017
		C166.324,252.47,164.309,252.642,162.329,252.642z M349.685,167.744c-1.003,0-2.014,0.086-3.035,0.268l-187.303,33.017
		c-9.398,1.651-15.683,10.643-14.032,20.031c1.651,9.389,10.712,15.674,20.023,14.032l187.312-33.017l0,0
		c4.548-0.804,8.516-3.328,11.161-7.107c2.654-3.787,3.674-8.369,2.87-12.916c-0.804-4.548-3.328-8.516-7.107-11.17
		C356.627,168.816,353.212,167.744,349.685,167.744z"/>
	<path style="fill:#4D007E;" d="M162.329,199.983c-16.452,0-31.089-11.827-34.046-28.582c-3.311-18.778,9.277-36.752,28.054-40.063
		L343.65,98.321c9.069-1.617,18.268,0.432,25.833,5.732c7.573,5.3,12.622,13.228,14.222,22.323
		c1.617,9.095-0.424,18.268-5.723,25.841s-13.228,12.614-22.323,14.222l-187.312,33.017
		C166.324,199.81,164.309,199.983,162.329,199.983z M349.685,115.085c-1.003,0-2.014,0.086-3.035,0.268L159.347,148.37
		c-9.398,1.651-15.683,10.643-14.032,20.031c1.651,9.38,10.643,15.691,20.023,14.023l187.312-33.008l1.504,8.516l-1.504-8.516
		c4.548-0.804,8.516-3.328,11.161-7.107c2.654-3.787,3.674-8.377,2.87-12.925s-3.328-8.516-7.107-11.161
		C356.627,116.157,353.212,115.085,349.685,115.085z"/>
	<path style="fill:#4D007E;" d="M162.347,147.315c-16.452,0-31.089-11.827-34.046-28.582c-3.311-18.778,9.277-36.743,28.046-40.054
		l187.312-33.017c18.838-3.277,36.752,9.277,40.063,28.054c3.311,18.787-9.277,36.752-28.046,40.063l-187.312,33.008
		C166.332,147.142,164.327,147.315,162.347,147.315z M349.676,62.426c-0.986,0-1.997,0.086-3.009,0.268L159.355,95.711
		c-9.389,1.651-15.674,10.634-14.023,20.031c1.651,9.38,10.668,15.674,20.023,14.023l187.312-33.017l0,0
		c9.389-1.651,15.674-10.634,14.023-20.031C365.212,68.339,357.907,62.426,349.676,62.426z"/>
	<path style="fill:#4D007E;" d="M204.536,87.186c-7.029,0-13.876-2.144-19.763-6.259c-7.565-5.308-12.614-13.236-14.213-22.331
		c-1.608-9.095,0.432-18.268,5.732-25.841c5.3-7.565,13.228-12.614,22.323-14.222L300.777,0.524
		c18.838-3.294,36.752,9.277,40.063,28.054c3.311,18.787-9.277,36.752-28.046,40.063L210.623,86.65
		C208.591,87.013,206.56,87.186,204.536,87.186z M306.795,17.296c-0.986,0-1.997,0.086-3.009,0.268l-102.163,18
		c-4.556,0.804-8.524,3.328-11.17,7.115c-2.646,3.778-3.666,8.369-2.87,12.916c0.804,4.548,3.328,8.516,7.107,11.17
		c3.778,2.654,8.386,3.648,12.916,2.862l102.172-18.008l0,0c9.389-1.651,15.674-10.634,14.023-20.031
		C322.331,23.21,315.025,17.296,306.795,17.296z"/>
	<path style="fill:#4D007E;" d="M228.623,304.515c-4.781,0-8.645-3.873-8.645-8.645c0-11.896-8.256-27.449-24.536-46.219
		c-1.625-1.867-3.268-3.7-4.919-5.499c-3.233-3.519-3-8.991,0.519-12.216c3.519-3.216,8.983-3,12.216,0.527
		c1.764,1.919,3.51,3.873,5.23,5.853c19.357,22.323,28.772,41.144,28.772,57.553C237.268,300.642,233.395,304.515,228.623,304.515z"
		/>
	<path style="fill:#4D007E;" d="M306.449,477.424H202.704c-14.3,0-25.936-11.637-25.936-25.936c0-14.3,11.637-25.936,25.936-25.936
		h103.745c14.3,0,25.936,11.637,25.936,25.936C332.385,465.787,320.748,477.424,306.449,477.424z M202.704,442.842
		c-4.772,0-8.645,3.882-8.645,8.645s3.873,8.645,8.645,8.645h103.745c4.772,0,8.645-3.882,8.645-8.645s-3.873-8.645-8.645-8.645
		H202.704z"/>
	<path style="fill:#4D007E;" d="M306.449,442.842H202.704c-14.3,0-25.936-11.637-25.936-25.936c0-14.3,11.637-25.936,25.936-25.936
		h103.745c14.3,0,25.936,11.637,25.936,25.936C332.385,431.205,320.748,442.842,306.449,442.842z M202.704,408.26
		c-4.772,0-8.645,3.882-8.645,8.645c0,4.764,3.873,8.645,8.645,8.645h103.745c4.772,0,8.645-3.882,8.645-8.645
		c0-4.764-3.873-8.645-8.645-8.645H202.704z"/>
	<path style="fill:#4D007E;" d="M295.374,512.006H213.77c-10.876,0-19.712-8.844-19.712-19.712v-23.516
		c0-4.772,3.865-8.645,8.645-8.645h103.745c4.781,0,8.645,3.873,8.645,8.645v23.516C315.094,503.161,306.25,512.006,295.374,512.006
		z M211.349,477.424v14.87c0,1.331,1.089,2.421,2.421,2.421h81.604c1.331,0,2.421-1.081,2.421-2.421v-14.87H211.349z"/>
</g>
<g>
</g>
<g>
</g>
<g>
</g>
<g>
</g>
<g>
</g>
<g>
</g>
<g>
</g>
<g>
</g>
<g>
</g>
<g>
</g>
<g>
</g>
<g>
</g>
<g>
</g>
<g>
</g>
<g>
</g>
</svg>
