<svg id="Capa_1" enable-background="new 0 0 512 512" height="512" viewBox="0 0 512 512" width="512" xmlns="http://www.w3.org/2000/svg"><g id="XMLID_2612_"><path id="XMLID_520_" d="m386.132 0h-260.264c-26.068 0-47.276 21.208-47.276 47.276v417.447c0 26.069 21.208 47.277 47.276 47.277h260.264c26.068 0 47.277-21.208 47.277-47.276v-417.448c-.001-26.068-21.209-47.276-47.277-47.276z" fill="#ff9e22"/><g id="XMLID_651_"><path id="XMLID_650_" d="m386.132 0h-130.132v512h130.132c26.068 0 47.277-21.208 47.277-47.276v-417.448c-.001-26.068-21.209-47.276-47.277-47.276z" fill="#fc8a26"/></g><g id="XMLID_2615_" fill="#ebf5f7"><path id="XMLID_518_" d="m295.155 59.136h-78.312c-34.322 0-62.245 27.924-62.245 62.246v43.302c0 34.322 27.923 62.245 62.245 62.245h78.312c34.322 0 62.246-27.923 62.246-62.245v-43.302c0-34.322-27.923-62.246-62.246-62.246z"/><path id="XMLID_511_" d="m295.155 285.071h-78.312c-34.322 0-62.245 27.923-62.245 62.245v43.302c0 34.322 27.923 62.246 62.245 62.246h78.312c34.322 0 62.246-27.924 62.246-62.246v-43.302c0-34.322-27.923-62.245-62.246-62.245z"/></g><g id="XMLID_2614_" fill="#dfeef0"><path id="XMLID_653_" d="m357.401 164.684v-43.302c0-34.322-27.923-62.246-62.246-62.246h-39.155v167.793h39.156c34.322 0 62.245-27.923 62.245-62.245z"/><path id="XMLID_645_" d="m295.156 452.864c34.322 0 62.246-27.924 62.246-62.246v-43.302c0-34.322-27.923-62.245-62.246-62.245h-39.156v167.793z"/></g><g id="XMLID_514_"><g id="XMLID_517_"><path id="XMLID_638_" d="m219.563 158.597c-8.284 0-15-6.716-15-15v-26.54c0-8.284 6.716-15 15-15s15 6.716 15 15v26.54c0 8.284-6.716 15-15 15z" fill="#07485e"/></g><g id="XMLID_515_"><path id="XMLID_636_" d="m292.437 158.597c-8.284 0-15-6.716-15-15v-26.54c0-8.284 6.716-15 15-15s15 6.716 15 15v26.54c0 8.284-6.716 15-15 15z" fill="#04303e"/></g></g><g id="XMLID_513_"><path id="XMLID_630_" d="m256 190.338c-8.284 0-15-6.716-15-15v-4.871c0-8.284 6.716-15 15-15s15 6.716 15 15v4.871c0 8.284-6.716 15-15 15z" fill="#07485e"/></g><g id="XMLID_508_"><g id="XMLID_510_"><path id="XMLID_626_" d="m219.563 384.532c-8.284 0-15-6.716-15-15v-26.54c0-8.284 6.716-15 15-15s15 6.716 15 15v26.54c0 8.284-6.716 15-15 15z" fill="#07485e"/></g><g id="XMLID_509_"><path id="XMLID_525_" d="m292.437 384.532c-8.284 0-15-6.716-15-15v-26.54c0-8.284 6.716-15 15-15s15 6.716 15 15v26.54c0 8.284-6.716 15-15 15z" fill="#04303e"/></g></g><g id="XMLID_507_"><path id="XMLID_523_" d="m256 416.272c-8.284 0-15-6.716-15-15v-4.87c0-8.284 6.716-15 15-15s15 6.716 15 15v4.87c0 8.285-6.716 15-15 15z" fill="#07485e"/></g><g id="XMLID_494_"><ellipse id="XMLID_521_" cx="256" cy="256" fill="#07485e" rx="15" ry="15.02"/></g><g id="XMLID_2613_" fill="#04303e"><path id="XMLID_660_" d="m271 175.338v-4.871c0-8.284-6.716-15-15-15v34.871c8.284 0 15-6.716 15-15z"/><path id="XMLID_658_" d="m271 401.272v-4.87c0-8.284-6.716-15-15-15v34.87c8.284 0 15-6.715 15-15z"/><path id="XMLID_652_" d="m271 256c0-8.295-6.716-15.02-15-15.02v30.04c8.284 0 15-6.725 15-15.02z"/></g></g></svg>